<svg width="97" height="97" viewBox="0 0 97 97" fill="none" xmlns="http://www.w3.org/2000/svg">
<path d="M60.0086 60.6345C60.6236 61.215 61.348 61.6621 62.1377 61.9488C62.9274 62.2354 63.7661 62.3555 64.6027 62.3019C65.9286 62.3362 67.2287 61.9251 68.3026 61.132C69.1775 60.5532 69.8396 59.6936 70.1852 58.6937H76.4323C75.7668 61.5451 74.1422 64.0688 71.8407 65.8263C69.6313 67.3205 67.0209 68.0779 64.3707 67.9937C62.4793 68.0188 60.6022 67.6562 58.851 66.9272C57.2662 66.2544 55.845 65.2364 54.6871 63.9446C53.5339 62.5915 52.6477 61.0244 52.0771 59.3291C51.4374 57.4336 51.1242 55.4397 51.1515 53.4354C51.1394 51.465 51.4632 49.507 52.1085 47.65C52.9788 45.0387 54.6363 42.7744 56.8445 41.1803C59.0527 39.5862 61.6987 38.7439 64.4045 38.7736C66.403 38.7314 68.3792 39.2086 70.1466 40.1603C71.744 41.0518 73.1215 42.303 74.1776 43.8177C75.2565 45.4061 76.0298 47.1888 76.4565 49.0711C76.9253 51.0931 77.0921 53.1743 76.9519 55.2481H58.3459C58.1937 57.1938 58.7906 59.1247 60.0086 60.6345ZM35.7887 29.0033C37.3554 28.9743 38.9198 29.1381 40.448 29.4909C41.7354 29.7768 42.9575 30.31 44.0489 31.0623C45.059 31.8085 45.8565 32.8134 46.364 33.9734C46.9465 35.3994 47.2268 36.9363 47.1881 38.4806C47.2556 40.178 46.8302 41.8581 45.9653 43.3103C45.057 44.6812 43.802 45.7765 42.333 46.4801C44.3274 47.0276 46.0645 48.2826 47.2316 50.0193C48.353 51.8591 48.9161 53.9969 48.8508 56.1618C48.8892 57.8877 48.5395 59.5996 47.8285 61.1665C47.1723 62.535 46.2095 63.7271 45.018 64.6466C43.7933 65.5578 42.4146 66.2315 40.9507 66.6341C39.4334 67.0626 37.8657 67.2772 36.2913 67.272H19V29.0033H35.7887ZM35.2207 60.7749C35.9651 60.7847 36.7094 60.7034 37.4344 60.531C38.0974 60.3826 38.726 60.1049 39.2856 59.7133C39.8366 59.3242 40.2788 58.7996 40.5761 58.1888C40.9193 57.4081 41.0788 56.5559 41.0377 55.7037C41.1125 54.9257 41.0115 54.1405 40.7426 53.4084C40.4737 52.6763 40.0439 52.0166 39.4862 51.4798C38.303 50.593 36.854 50.1532 35.3875 50.236H26.8325V60.7749H35.2207ZM68.1721 46.0786C67.6516 45.548 67.0254 45.1373 66.3359 44.8743C65.6463 44.6113 64.9094 44.5021 64.175 44.5541C63.1997 44.5156 62.2314 44.7353 61.3644 45.192C60.6774 45.5769 60.0714 46.0958 59.5809 46.719C59.1439 47.3018 58.8192 47.9637 58.6238 48.6696C58.445 49.2583 58.3338 49.8641 58.2928 50.4774H69.8179C69.7169 48.8772 69.1451 47.3452 68.177 46.0811L68.1721 46.0786ZM34.7906 44.4827C36.0223 44.534 37.2346 44.158 38.2295 43.4162C39.1938 42.5419 39.6964 41.2489 39.5828 39.9361C39.6142 39.1801 39.4666 38.4274 39.1527 37.7417C38.8848 37.1968 38.4698 36.7414 37.9564 36.4289C37.4358 36.085 36.8506 35.8552 36.2382 35.7541C35.5736 35.6217 34.8972 35.5614 34.2202 35.5743H26.8325V44.5172H34.7906V44.4827ZM71.2486 31.5598H56.8065V35.3206H71.2486V31.5598Z" fill="#FFBC21"/>
</svg>
