<svg width="97" height="97" viewBox="0 0 97 97" fill="none" xmlns="http://www.w3.org/2000/svg">
<path d="M48 20C31.9775 20 19 33.0849 19 49.2236C19 62.138 27.3085 73.0896 38.8288 76.9495C40.2788 77.2247 40.8104 76.3212 40.8104 75.5443C40.8104 74.8503 40.7863 73.0116 40.7742 70.5763C32.7073 72.3395 31.006 66.6555 31.006 66.6555C29.6865 63.2826 27.7798 62.3815 27.7798 62.3815C25.1528 60.5697 27.9828 60.6062 27.9828 60.6062C30.8948 60.8108 32.4246 63.6162 32.4246 63.6162C35.0104 68.085 39.213 66.7943 40.8708 66.0467C41.1318 64.1569 41.8786 62.8686 42.7075 62.138C36.2671 61.4074 29.498 58.8942 29.498 47.6967C29.498 44.5064 30.6218 41.9007 32.4826 39.855C32.1563 39.1171 31.1776 36.146 32.7363 32.1205C32.7363 32.1205 35.1651 31.3363 40.7113 35.1159C43.0313 34.4657 45.4963 34.1442 47.9613 34.1296C50.4263 34.1442 52.8913 34.4657 55.2113 35.1159C60.7213 31.3363 63.1501 32.1205 63.1501 32.1205C64.7088 36.146 63.7301 39.1171 63.4401 39.855C65.2888 41.9007 66.4126 44.5064 66.4126 47.6967C66.4126 58.9234 59.6338 61.3952 53.1813 62.1137C54.1963 62.9904 55.1388 64.7827 55.1388 67.52C55.1388 71.4311 55.1026 74.5727 55.1026 75.5224C55.1026 76.2895 55.6101 77.2028 57.0963 76.9105C68.6988 73.0774 77 62.1185 77 49.2236C77 33.0849 64.0153 20 48 20Z" fill="#FFBC21"/>
</svg>
