<svg width="97" height="97" viewBox="0 0 97 97" fill="none" xmlns="http://www.w3.org/2000/svg">
<path d="M29.4424 24C26.1624 24 24 26.2401 24 29.2003C24 32.0804 26.0812 34.398 29.2811 34.398C32.721 34.398 34.881 32.0804 34.801 29.2003C34.801 26.2401 32.7223 24 29.4424 24ZM60.1591 37.7607C54.6392 37.7607 51.2805 40.9596 49.9206 43.1997H49.7618L49.2806 38.4808H40.4021C40.4821 41.5209 40.6408 45.0411 40.6408 49.2013V72H50.8793V52.719C50.8793 51.7589 50.9593 50.8001 51.1993 50.0801C51.9993 48.16 53.6805 46.1587 56.4804 46.1587C60.2403 46.1587 61.6803 49.1201 61.6803 53.4403V72H72V52.2415C72 42.321 66.8789 37.7607 60.1591 37.7607ZM24.2425 38.4808V72H34.481V38.4808H24.2425Z" fill="#FFBC21"/>
</svg>
