<svg width="97" height="97" viewBox="0 0 97 97" fill="none" xmlns="http://www.w3.org/2000/svg">
<path d="M56.7452 19.1344L23.6036 21.5513C20.9304 21.78 20 23.505 20 25.5729V61.4479C20 63.0585 20.579 64.4365 21.9765 66.2777L29.7668 76.2805C31.0465 77.8911 32.2105 78.2361 34.6542 78.1217L73.1403 75.8211C76.3945 75.5925 77.3269 74.0962 77.3269 71.5669V31.2071C77.3269 29.9001 76.8038 29.5236 75.2645 28.4078C75.176 28.3448 75.0874 28.2817 74.999 28.2185L64.4217 20.8594C61.8622 19.0221 60.816 18.7895 56.7452 19.1344ZM35.5246 30.5467C32.3822 30.7557 31.6694 30.803 29.8846 29.3698L25.3466 25.8056C24.8854 25.3443 25.117 24.7686 26.2789 24.6543L58.1387 22.3557C60.814 22.125 62.2076 23.0456 63.2537 23.85L68.7181 27.7592C68.9517 27.8755 69.5326 28.5635 68.8339 28.5635L35.9319 30.5191L35.5246 30.5467ZM31.8611 71.2219V36.9596C31.8611 35.4633 32.3263 34.7733 33.7198 34.657L71.5092 32.4727C72.7909 32.3584 73.3699 33.1627 73.3699 34.657V68.6907C73.3699 70.187 73.1363 71.4526 71.044 71.5669L34.8818 73.6369C32.7894 73.7512 31.8611 73.0632 31.8611 71.2219ZM67.5581 38.7969C67.7897 39.8318 67.5581 40.8668 66.51 40.9851L64.767 41.3261V66.6227C63.2537 67.427 61.8602 67.8864 60.6962 67.8864C58.8355 67.8864 58.3703 67.3107 56.9768 65.5878L45.5789 47.8809V65.0121L49.1845 65.8184C49.1845 65.8184 49.1845 67.8883 46.2757 67.8883L38.2558 68.3477C38.0222 67.8864 38.2558 66.7371 39.0684 66.5084L41.1627 65.9347V43.2837L38.2558 43.0511C38.0222 42.0161 38.6032 40.5218 40.2323 40.4055L48.8371 39.8338L60.6962 57.7693V41.9018L57.6736 41.5588C57.44 40.2912 58.3703 39.3705 59.5323 39.2582L67.5581 38.7969Z" fill="#FFBC21"/>
</svg>
